<svg version="1.1" xmlns="http://www.w3.org/2000/svg" width="200px" height="200px" transform="rotate(0) scale(1, 1)">
<path d="M0 0 C5.64075935 4.86877362 10.75942586 10.20945017 14 17 C14 17.66 14 18.32 14 19 C14.66 19 15.32 19 16 19 C16.65077296 21.04009755 17.29539824 23.08215669 17.9375 25.125 C18.47697266 26.83042969 18.47697266 26.83042969 19.02734375 28.5703125 C20.78648812 34.77323922 21.1329596 40.4794364 21.0625 46.875 C21.05798828 47.65875 21.05347656 48.4425 21.04882812 49.25 C21.03714093 51.16670014 21.01920908 53.08336048 21 55 C21.77859375 55.27070312 22.5571875 55.54140625 23.359375 55.8203125 C26.97734436 57.43662426 28.09091557 59.59092067 30 63 C33.59442856 73.99611369 30.35147516 86.08330901 25.8125 96.25 C23.944125 99.86712844 22.00093177 102.04987713 18.8125 104.5625 C15.0260576 107.60873561 13.9472293 109.86760737 13.19921875 114.62109375 C13.06583 116.2139124 12.98552321 117.81201607 12.95703125 119.41015625 C12.6908485 127.40831418 8.99586778 131.96602983 4 138 C3.36964844 138.83273438 2.73929687 139.66546875 2.08984375 140.5234375 C-0.26305257 143.31172959 -2.79507151 145.51270636 -5.625 147.8125 C-6.58664063 148.60269531 -7.54828125 149.39289063 -8.5390625 150.20703125 C-11 152 -11 152 -13 152 C-13.33 152.99 -13.66 153.98 -14 155 C-15.95597184 156.39712274 -17.9659094 157.71927629 -20 159 C-20.5053125 159.41636719 -21.010625 159.83273438 -21.53125 160.26171875 C-31.0423625 168.02446498 -43.90846746 167.87046588 -55.5703125 166.75390625 C-61.69532605 165.71884298 -66.10835083 162.69439238 -71 159 C-71.69609375 158.484375 -72.3921875 157.96875 -73.109375 157.4375 C-75.44210673 155.66666716 -77.72166468 153.84032977 -80 152 C-80.50611816 151.60151855 -81.01223633 151.20303711 -81.53369141 150.79248047 C-101.48737708 135.03957073 -101.48737708 135.03957073 -103.34716797 123.92529297 C-103.39502441 123.20486816 -103.44288086 122.48444336 -103.4921875 121.7421875 C-103.55792969 120.95199219 -103.62367187 120.16179687 -103.69140625 119.34765625 C-103.81433771 117.69200494 -103.92885127 116.03570819 -104.03515625 114.37890625 C-104.10347656 113.59128906 -104.17179687 112.80367188 -104.2421875 111.9921875 C-104.2922998 111.27401855 -104.34241211 110.55584961 -104.39404297 109.81591797 C-104.84260029 107.81387127 -104.84260029 107.81387127 -106.89892578 106.86767578 C-107.93895752 106.43817627 -107.93895752 106.43817627 -109 106 C-115.6467242 100.75258616 -120.07474274 91.56814386 -121.75390625 83.328125 C-122.62917848 75.04777185 -123.53577463 66.28963779 -119 59 C-117 56.5625 -117 56.5625 -115 55 C-114.01 55 -113.02 55 -112 55 C-112.05220703 53.38544922 -112.05220703 53.38544922 -112.10546875 51.73828125 C-112.36518115 40.09272378 -110.77434434 30.07688012 -107 19 C-106.34 19 -105.68 19 -105 19 C-104.773125 18.13246094 -104.54625 17.26492187 -104.3125 16.37109375 C-102.82873042 12.56010224 -100.77081387 9.98222608 -98 7.0625 C-97.51015625 6.54034912 -97.0203125 6.01819824 -96.515625 5.48022461 C-71.2042772 -20.80557746 -28.528245 -21.34272002 0 0 Z M-95.6953125 10.390625 C-97.35594373 12.43906832 -98.30751914 14.46090351 -99 17 C-98.34 17.66 -97.68 18.32 -97 19 C-98.32 19.33 -99.64 19.66 -101 20 C-100.67 20.99 -100.34 21.98 -100 23 C-101.98 23.495 -101.98 23.495 -104 24 C-103.34 24.33 -102.68 24.66 -102 25 C-102 25.99 -102 26.98 -102 28 C-102.99 27.67 -103.98 27.34 -105 27 C-107.86973256 35.60029928 -108.55596757 43.7228723 -108.75 52.75 C-108.79253906 54.02488281 -108.83507812 55.29976563 -108.87890625 56.61328125 C-109.04655943 62.56807375 -108.95749945 68.10381918 -108 74 C-107.01 74 -106.02 74 -105 74 C-105 74.99 -105 75.98 -105 77 C-105.99 77.495 -105.99 77.495 -107 78 C-105.68 78.99 -104.36 79.98 -103 81 C-103.99 81 -104.98 81 -106 81 C-105.1650094 86.17800877 -104.32879331 91.35581761 -103.49145508 96.53344727 C-103.20694058 98.29380985 -102.92275744 100.05422603 -102.63891602 101.81469727 C-102.23020732 104.34926382 -101.82029628 106.88363347 -101.41015625 109.41796875 C-101.22103416 110.59325386 -101.22103416 110.59325386 -101.02809143 111.7922821 C-100.41971892 115.54435916 -99.78049993 119.27886133 -99 123 C-98.505 122.01 -98.505 122.01 -98 121 C-97.34 121 -96.68 121 -96 121 C-96.2475 122.03125 -96.495 123.0625 -96.75 124.125 C-97.0662764 129.02728427 -96.07502667 130.23309233 -93 134 C-92.25169922 134.94359375 -92.25169922 134.94359375 -91.48828125 135.90625 C-87.2265003 141.07204509 -82.4076572 145.07607641 -77 149 C-76.67 148.34 -76.34 147.68 -76 147 C-75.34 147 -74.68 147 -74 147 C-73.67 148.32 -73.34 149.64 -73 151 C-70.69 150.67 -68.38 150.34 -66 150 C-66 150.33 -66 150.66 -66 151 C-67.98 151.33 -69.96 151.66 -72 152 C-66.85272094 158.0051589 -59.85918206 161.85511157 -52 163 C-40.77787916 163.76481033 -31.57317149 162.73074516 -22.6953125 155.48828125 C-19.71460877 152.87833223 -19.71460877 152.87833223 -17 150 C-17 149.34 -17 148.68 -17 148 C-16.01 148.33 -15.02 148.66 -14 149 C-0.81874098 138.34005707 -0.81874098 138.34005707 7 124 C7.31163086 122.97156982 7.62326172 121.94313965 7.94433594 120.88354492 C9.16975792 116.61695362 9.885533 112.30586359 10.578125 107.92578125 C10.78075958 106.65639961 10.78075958 106.65639961 10.98748779 105.3613739 C11.26887914 103.5843246 11.5477512 101.80687472 11.82421875 100.02905273 C12.25066539 97.30825473 12.69546336 94.59083711 13.140625 91.87304688 C13.41259362 90.14080286 13.68346546 88.40838622 13.953125 86.67578125 C14.08841614 85.86530838 14.22370728 85.05483551 14.36309814 84.21980286 C15.21193849 78.80603148 15.21193849 78.80603148 13 74 C13.66 74 14.32 74 15 74 C15.33 74.66 15.66 75.32 16 76 C17.16542199 72.50373403 17.18072791 69.33080035 17.203125 65.69140625 C17.20882507 64.96944565 17.21452515 64.24748505 17.22039795 63.50364685 C17.22984435 61.97127746 17.23638051 60.4388878 17.24023438 58.90649414 C17.24983546 56.60199416 17.28081575 54.29842733 17.3125 51.99414062 C17.37360943 43.23453037 16.71717672 35.42509206 14 27 C12.515 27.495 12.515 27.495 11 28 C11 27.01 11 26.02 11 25 C11.66 24.67 12.32 24.34 13 24 C12.34 23.34 11.68 22.68 11 22 C11 21.34 11 20.68 11 20 C10.34 20 9.68 20 9 20 C8.505 19.01 8.505 19.01 8 18 C7.01 17.01 7.01 17.01 6 16 C6.99 15.505 6.99 15.505 8 15 C-4.53718138 -0.07476719 -19.33214996 -8.76193431 -39 -11 C-60.75415357 -12.47293748 -80.56809334 -5.38800551 -95.6953125 10.390625 Z M-113 59 C-118.17175412 64.9798407 -118.34904173 69.50317388 -118.27734375 77.22265625 C-117.60957621 86.31746206 -114.34444934 94.38364569 -108 101 C-107.34 101.33 -106.68 101.66 -106 102 C-106.2844814 99.79072956 -106.5779096 97.58261021 -106.875 95.375 C-107.03742188 94.14523438 -107.19984375 92.91546875 -107.3671875 91.6484375 C-107.89490955 88.06618865 -107.89490955 88.06618865 -109 85 C-111.7230866 76.8307402 -112.35026896 67.58158952 -112 59 C-112.33 59 -112.66 59 -113 59 Z M21 59 C20.98582031 59.804375 20.97164062 60.60875 20.95703125 61.4375 C20.56158519 71.18471105 18.83291662 80.36969993 16.63989258 89.87304688 C16.4158374 90.86755859 16.19178223 91.86207031 15.9609375 92.88671875 C15.75259277 93.77576904 15.54424805 94.66481934 15.32958984 95.58081055 C14.99115229 98.0649422 15.21390697 99.64137824 16 102 C24.26093035 93.50304307 27.33230904 82.33799986 27.22265625 70.73046875 C26.90563477 66.84278428 25.94160841 64.37983686 24 61 C23.01 60.34 22.02 59.68 21 59 Z " fill="#ffffff" transform="translate(151,24)"/>
<path d="M0 0 C1.01320312 0.10828125 1.01320312 0.10828125 2.046875 0.21875 C2.93890625 0.3115625 3.8309375 0.404375 4.75 0.5 C5.63171875 0.5928125 6.5134375 0.685625 7.421875 0.78125 C10.23304835 1.05636313 10.23304835 1.05636313 14 1 C13.67 1.99 13.34 2.98 13 4 C12.34 4 11.68 4 11 4 C11.33 5.98 11.66 7.96 12 10 C10.33333333 10 8.66666667 10 7 10 C6.34 9.01 5.68 8.02 5 7 C4.38125 7.495 3.7625 7.99 3.125 8.5 C1 10 1 10 -1 10 C0.13304992 6.60085025 1.12518475 5.94745549 4 4 C2.68 3.34 1.36 2.68 0 2 C0 1.34 0 0.68 0 0 Z " fill="#ffffff" transform="translate(127,110)"/>
<path d="M0 0 C-0.33 0.99 -0.66 1.98 -1 3 C-2.65 3.33 -4.3 3.66 -6 4 C-5.67 5.32 -5.34 6.64 -5 8 C-5.99 8 -6.98 8 -8 8 C-8 8.99 -8 9.98 -8 11 C-9.65 10.67 -11.3 10.34 -13 10 C-12.34 7.69 -11.68 5.38 -11 3 C-9.88625 2.814375 -9.88625 2.814375 -8.75 2.625 C-5.66608976 1.92411131 -3.12089925 0 0 0 Z " fill="#ffffff" transform="translate(88,109)"/>
<path d="M0 0 C4.54748603 -0.36871508 4.54748603 -0.36871508 6.6875 1.375 C7.120625 1.91125 7.55375 2.4475 8 3 C8.66 3.66 9.32 4.32 10 5 C7 6 7 6 3.6875 5.9375 C0.00797711 5.99986479 -2.59587343 6.67156036 -6 8 C-5.67 7.01 -5.34 6.02 -5 5 C-3.02 4.67 -1.04 4.34 1 4 C0.67 2.68 0.34 1.36 0 0 Z " fill="#ffffff" transform="translate(102,98)"/>
<path d="M0 0 C0 1.32 0 2.64 0 4 C0.78375 4.144375 1.5675 4.28875 2.375 4.4375 C5 5 5 5 7 6 C7 6.66 7 7.32 7 8 C4.03 7.01 1.06 6.02 -2 5 C-2 5.66 -2 6.32 -2 7 C-2.66 7 -3.32 7 -4 7 C-4.33 6.01 -4.66 5.02 -5 4 C-5.99 3.67 -6.98 3.34 -8 3 C-8 2.34 -8 1.68 -8 1 C-5.07175348 0.02391783 -3.04386724 -0.08226668 0 0 Z " fill="#ffffff" transform="translate(135,25)"/>
<path d="M0 0 C0.66 0 1.32 0 2 0 C2.33 3.3 2.66 6.6 3 10 C-2.75 8.125 -2.75 8.125 -5 7 C-5 6.34 -5 5.68 -5 5 C-3.35 4.34 -1.7 3.68 0 3 C0 2.01 0 1.02 0 0 Z " fill="#ffffff" transform="translate(122,60)"/>
<path d="M0 0 C0.66 0 1.32 0 2 0 C2 0.99 2 1.98 2 3 C2.99 3.33 3.98 3.66 5 4 C4.67 5.65 4.34 7.3 4 9 C2.35 9.33 0.7 9.66 -1 10 C-0.67 8.35 -0.34 6.7 0 5 C-0.99 5 -1.98 5 -3 5 C-3 4.34 -3 3.68 -3 3 C-2.01 2.67 -1.02 2.34 0 2 C0 1.34 0 0.68 0 0 Z " fill="#ffffff" transform="translate(87,60)"/>
<path d="M0 0 C1.36125 0.37125 1.36125 0.37125 2.75 0.75 C2.09 2.73 1.43 4.71 0.75 6.75 C0.09 6.75 -0.57 6.75 -1.25 6.75 C-1.25 6.09 -1.25 5.43 -1.25 4.75 C-3.23 5.08 -5.21 5.41 -7.25 5.75 C-7.25 3.75 -7.25 3.75 -5.625 1.5625 C-3.25 -0.25 -3.25 -0.25 0 0 Z " fill="#ffffff" transform="translate(79.25,25.25)"/>
<path d="M0 0 C2.97 0 5.94 0 9 0 C9 0.66 9 1.32 9 2 C8.34 2 7.68 2 7 2 C7 3.32 7 4.64 7 6 C5.35 6 3.7 6 2 6 C2 4.68 2 3.36 2 2 C1.34 2 0.68 2 0 2 C0 1.34 0 0.68 0 0 Z " fill="#ffffff" transform="translate(101,131)"/>
<path d="M0 0 C0 0.66 0 1.32 0 2 C-0.99 2 -1.98 2 -3 2 C-3.33 3.32 -3.66 4.64 -4 6 C-5.32 5.67 -6.64 5.34 -8 5 C-8.33 3.68 -8.66 2.36 -9 1 C-6.04335481 -0.4783226 -3.25770263 -0.06032783 0 0 Z " fill="#ffffff" transform="translate(111,167)"/>
<path d="M0 0 C0.99 0.33 1.98 0.66 3 1 C3 1.66 3 2.32 3 3 C4.32 3 5.64 3 7 3 C7 4.65 7 6.3 7 8 C5.02 8 3.04 8 1 8 C1.020625 7.236875 1.04125 6.47375 1.0625 5.6875 C1.12942841 2.89814214 1.12942841 2.89814214 0 0 Z " fill="#ffffff" transform="translate(128,73)"/>
<path d="M0 0 C2.64 0 5.28 0 8 0 C8.33 1.32 8.66 2.64 9 4 C6.75 4.6875 6.75 4.6875 4 5 C1.6875 3.6875 1.6875 3.6875 0 2 C0 1.34 0 0.68 0 0 Z " fill="#ffffff" transform="translate(72,153)"/>
<path d="M0 0 C-0.33 1.32 -0.66 2.64 -1 4 C-3.76276177 3.47731534 -6.3260876 2.89130413 -9 2 C-9 1.34 -9 0.68 -9 0 C-5.67465243 -1.10844919 -3.37817425 -0.84454356 0 0 Z " fill="#ffffff" transform="translate(81,77)"/>
<path d="M0 0 C2 1.375 2 1.375 4 3 C4 3.66 4 4.32 4 5 C1 7 1 7 -1.1875 6.625 C-1.785625 6.41875 -2.38375 6.2125 -3 6 C-2.625 3.5625 -2.625 3.5625 -2 1 C-1.34 0.67 -0.68 0.34 0 0 Z " fill="#ffffff" transform="translate(96,122)"/>
<path d="M0 0 C1.2065625 0.0309375 1.2065625 0.0309375 2.4375 0.0625 C2.25 2.4375 2.25 2.4375 1.4375 5.0625 C-1.125 6.375 -1.125 6.375 -3.5625 7.0625 C-3.60504356 5.06295254 -3.60330783 3.06208364 -3.5625 1.0625 C-2.5625 0.0625 -2.5625 0.0625 0 0 Z " fill="#ffffff" transform="translate(56.5625,75.9375)"/>
<path d="M0 0 C2.475 0.99 2.475 0.99 5 2 C4.34 3.65 3.68 5.3 3 7 C1.68 6.67 0.36 6.34 -1 6 C-1.042721 4.33388095 -1.04063832 2.66617115 -1 1 C-0.67 0.67 -0.34 0.34 0 0 Z " fill="#ffffff" transform="translate(114,122)"/>
<path d="M0 0 C1.65 0 3.3 0 5 0 C5 2.31 5 4.62 5 7 C4.34 7 3.68 7 3 7 C3 6.34 3 5.68 3 5 C2.01 5 1.02 5 0 5 C0 3.35 0 1.7 0 0 Z " fill="#ffffff" transform="translate(152,76)"/>
<path d="M0 0 C1.32 0 2.64 0 4 0 C4 1.65 4 3.3 4 5 C3.01 5.33 2.02 5.66 1 6 C0.34 5.67 -0.32 5.34 -1 5 C-0.67 3.35 -0.34 1.7 0 0 Z " fill="#ffffff" transform="translate(131,153)"/>
<path d="M0 0 C0.66 0 1.32 0 2 0 C1.01 2.97 0.02 5.94 -1 9 C-1.99 9 -2.98 9 -4 9 C-2.68 6.03 -1.36 3.06 0 0 Z " fill="#ffffff" transform="translate(103,104)"/>
<path d="M0 0 C1.48206495 0.254496 2.96068615 0.52911762 4.4375 0.8125 C5.67306641 1.03873047 5.67306641 1.03873047 6.93359375 1.26953125 C7.95646484 1.63111328 7.95646484 1.63111328 9 2 C9.33 2.99 9.66 3.98 10 5 C8.51793505 4.745504 7.03931385 4.47088238 5.5625 4.1875 C4.73878906 4.03667969 3.91507813 3.88585937 3.06640625 3.73046875 C2.38449219 3.48941406 1.70257813 3.24835938 1 3 C0.67 2.01 0.34 1.02 0 0 Z " fill="#ffffff" transform="translate(58,107)"/>
<path d="M0 0 C0.66 0 1.32 0 2 0 C1.34 2.97 0.68 5.94 0 9 C-0.99 9 -1.98 9 -3 9 C-2.01 6.03 -1.02 3.06 0 0 Z " fill="#ffffff" transform="translate(129,37)"/>
<path d="M0 0 C0.66 0 1.32 0 2 0 C1.34 1.98 0.68 3.96 0 6 C-0.99 6 -1.98 6 -3 6 C-2.01 4.02 -1.02 2.04 0 0 Z " fill="#ffffff" transform="translate(52,84)"/>
<path d="M0 0 C2.97 0.495 2.97 0.495 6 1 C6.33 1.99 6.66 2.98 7 4 C4.97954558 3.39816251 2.97888961 2.72693904 1 2 C0.67 1.34 0.34 0.68 0 0 Z " fill="#ffffff" transform="translate(84,159)"/>
<path d="M0 0 C0.66 0 1.32 0 2 0 C1.34 1.98 0.68 3.96 0 6 C-0.99 5.67 -1.98 5.34 -3 5 C-1.625 2.5 -1.625 2.5 0 0 Z " fill="#ffffff" transform="translate(84,143)"/>
<path d="M0 0 C0.66 0 1.32 0 2 0 C1.34 1.98 0.68 3.96 0 6 C-0.99 5.67 -1.98 5.34 -3 5 C-1.625 2.5 -1.625 2.5 0 0 Z " fill="#ffffff" transform="translate(88,136)"/>
<path d="M0 0 C0.66 0 1.32 0 2 0 C2 0.99 2 1.98 2 3 C1.34 3 0.68 3 0 3 C-0.33 3.99 -0.66 4.98 -1 6 C-1.66 6 -2.32 6 -3 6 C-2 4 -1 2 0 0 Z " fill="#ffffff" transform="translate(63,132)"/>
<path d="M0 0 C2.4375 0.8125 2.4375 0.8125 5 2 C5.33 2.99 5.66 3.98 6 5 C3.5625 4.1875 3.5625 4.1875 1 3 C0.67 2.01 0.34 1.02 0 0 Z " fill="#ffffff" transform="translate(96,93)"/>
<path d="M0 0 C-0.33 0.99 -0.66 1.98 -1 3 C-3.5625 4.1875 -3.5625 4.1875 -6 5 C-4.87312259 1.61936778 -3.78825335 0 0 0 Z " fill="#ffffff" transform="translate(123,86)"/>
<path d="M0 0 C-4.75 3 -4.75 3 -7 3 C-6.67 2.01 -6.34 1.02 -6 0 C-3.50907189 -1.24546405 -2.58919267 -0.7767578 0 0 Z " fill="#ffffff" transform="translate(157,50)"/>
<path d="M0 0 C2.97 0.495 2.97 0.495 6 1 C6.33 1.99 6.66 2.98 7 4 C4.97954558 3.39816251 2.97888961 2.72693904 1 2 C0.67 1.34 0.34 0.68 0 0 Z " fill="#ffffff" transform="translate(51,47)"/>
<path d="M0 0 C0.33 0.99 0.66 1.98 1 3 C-0.98 3.66 -2.96 4.32 -5 5 C-4 2 -4 2 -1.9375 0.8125 C-1.298125 0.544375 -0.65875 0.27625 0 0 Z " fill="#ffffff" transform="translate(60,36)"/>
<path d="M0 0 C1.98 0.99 3.96 1.98 6 3 C6 3.66 6 4.32 6 5 C4.02 4.34 2.04 3.68 0 3 C0 2.01 0 1.02 0 0 Z " fill="#ffffff" transform="translate(143,32)"/>
<path d="M0 0 C0.33 0.99 0.66 1.98 1 3 C-0.98 3.66 -2.96 4.32 -5 5 C-4 2 -4 2 -1.9375 0.8125 C-1.298125 0.544375 -0.65875 0.27625 0 0 Z " fill="#ffffff" transform="translate(67,32)"/>
<path d="M0 0 C0.66 0 1.32 0 2 0 C1.34 1.98 0.68 3.96 0 6 C-0.99 5.67 -1.98 5.34 -3 5 C-1.625 2.5 -1.625 2.5 0 0 Z " fill="#ffffff" transform="translate(92,129)"/>
<path d="M0 0 C1.20628008 2.33214148 2.1654738 4.49642139 3 7 C2.01 6.67 1.02 6.34 0 6 C-0.38218767 4.34385343 -0.71395102 2.67542976 -1 1 C-0.67 0.67 -0.34 0.34 0 0 Z " fill="#ffffff" transform="translate(51,60)"/>
<path d="M0 0 C0.66 0 1.32 0 2 0 C1.34 2.31 0.68 4.62 0 7 C-0.66 6.34 -1.32 5.68 -2 5 C-1.34 3.35 -0.68 1.7 0 0 Z " fill="#ffffff" transform="translate(160,57)"/>
<path d="M0 0 C-0.33 0.99 -0.66 1.98 -1 3 C-2.65 3.33 -4.3 3.66 -6 4 C-6 3.34 -6 2.68 -6 2 C-2.25 0 -2.25 0 0 0 Z " fill="#ffffff" transform="translate(149,52)"/>
<path d="M0 0 C0.99 0.33 1.98 0.66 3 1 C3.33 2.65 3.66 4.3 4 6 C3.01 6.495 3.01 6.495 2 7 C1.34 4.69 0.68 2.38 0 0 Z " fill="#ffffff" transform="translate(81,41)"/>
<path d="M0 0 C2.475 0.99 2.475 0.99 5 2 C5 2.99 5 3.98 5 5 C2.5 3.625 2.5 3.625 0 2 C0 1.34 0 0.68 0 0 Z " fill="#ffffff" transform="translate(150,36)"/>
<path d="M0 0 C2.97 0.495 2.97 0.495 6 1 C6 1.66 6 2.32 6 3 C3.69 2.67 1.38 2.34 -1 2 C-0.67 1.34 -0.34 0.68 0 0 Z " fill="#ffffff" transform="translate(125,173)"/>
<path d="M0 0 C2.31 0.33 4.62 0.66 7 1 C6.34 1.66 5.68 2.32 5 3 C2.375 2.625 2.375 2.625 0 2 C0 1.34 0 0.68 0 0 Z " fill="#ffffff" transform="translate(117,172)"/>
<path d="M0 0 C2.475 0.495 2.475 0.495 5 1 C4.67 1.99 4.34 2.98 4 4 C2.68 3.67 1.36 3.34 0 3 C0 2.01 0 1.02 0 0 Z " fill="#ffffff" transform="translate(77,149)"/>
<path d="M0 0 C0 0.99 0 1.98 0 3 C-1.65 3.66 -3.3 4.32 -5 5 C-4 2 -4 2 -1.9375 0.8125 C-1.298125 0.544375 -0.65875 0.27625 0 0 Z " fill="#ffffff" transform="translate(94,105)"/>
<path d="M0 0 C0.33 0.99 0.66 1.98 1 3 C-0.98 3.33 -2.96 3.66 -5 4 C-5 3.34 -5 2.68 -5 2 C-3.35 1.34 -1.7 0.68 0 0 Z " fill="#ffffff" transform="translate(159,105)"/>
<path d="M0 0 C0.66 0 1.32 0 2 0 C1.39816251 2.02045442 0.72693904 4.02111039 0 6 C-0.99 6.495 -0.99 6.495 -2 7 C-1.125 2.25 -1.125 2.25 0 0 Z " fill="#ffffff" transform="translate(48,91)"/>
<path d="M0 0 C0.66 0.33 1.32 0.66 2 1 C1.67 1.99 1.34 2.98 1 4 C0.34 3.67 -0.32 3.34 -1 3 C-0.67 2.01 -0.34 1.02 0 0 Z " fill="#ffffff" transform="translate(56,141)"/>
<path d="M0 0 C0.99 0 1.98 0 3 0 C2.67 0.99 2.34 1.98 2 3 C1.34 3 0.68 3 0 3 C0 2.01 0 1.02 0 0 Z " fill="#ffffff" transform="translate(70,123)"/>
<path d="M0 0 C0.99 0.33 1.98 0.66 3 1 C3 1.66 3 2.32 3 3 C2.01 2.67 1.02 2.34 0 2 C0 1.34 0 0.68 0 0 Z " fill="#ffffff" transform="translate(95,164)"/>
<path d="M0 0 C0.99 0 1.98 0 3 0 C3 0.66 3 1.32 3 2 C2.01 2.33 1.02 2.66 0 3 C0 2.01 0 1.02 0 0 Z " fill="#ffffff" transform="translate(119,161)"/>
<path d="M0 0 C0.99 0.33 1.98 0.66 3 1 C2.01 1.66 1.02 2.32 0 3 C0 2.01 0 1.02 0 0 Z " fill="#ffffff" transform="translate(123,159)"/>
<path d="M0 0 C0.66 0 1.32 0 2 0 C1.67 0.99 1.34 1.98 1 3 C0.34 3 -0.32 3 -1 3 C-0.67 2.01 -0.34 1.02 0 0 Z " fill="#ffffff" transform="translate(127,157)"/>
<path d="M0 0 C0.99 0.33 1.98 0.66 3 1 C3 1.66 3 2.32 3 3 C2.01 2.67 1.02 2.34 0 2 C0 1.34 0 0.68 0 0 Z " fill="#ffffff" transform="translate(153,139)"/>
<path d="M0 0 C0.99 0 1.98 0 3 0 C3 0.99 3 1.98 3 3 C2.34 3 1.68 3 1 3 C0.67 2.01 0.34 1.02 0 0 Z " fill="#ffffff" transform="translate(148,133)"/>
<path d="M0 0 C0.66 0 1.32 0 2 0 C2.33 0.99 2.66 1.98 3 3 C2.01 3 1.02 3 0 3 C0 2.01 0 1.02 0 0 Z " fill="#ffffff" transform="translate(146,129)"/>
<path d="M0 0 C0.66 0 1.32 0 2 0 C1.67 0.99 1.34 1.98 1 3 C0.34 3 -0.32 3 -1 3 C-0.67 2.01 -0.34 1.02 0 0 Z " fill="#ffffff" transform="translate(66,129)"/>
<path d="M0 0 C0.66 0 1.32 0 2 0 C1.67 0.99 1.34 1.98 1 3 C0.34 3 -0.32 3 -1 3 C-0.67 2.01 -0.34 1.02 0 0 Z " fill="#ffffff" transform="translate(111,128)"/>
<path d="M0 0 C0.99 0.33 1.98 0.66 3 1 C3 1.66 3 2.32 3 3 C2.01 2.67 1.02 2.34 0 2 C0 1.34 0 0.68 0 0 Z " fill="#ffffff" transform="translate(141,123)"/>
<path d="M0 0 C0.66 0.66 1.32 1.32 2 2 C0.68 2.33 -0.64 2.66 -2 3 C-1.34 2.01 -0.68 1.02 0 0 Z " fill="#ffffff" transform="translate(124,119)"/>
<path d="M0 0 C0.99 0.33 1.98 0.66 3 1 C3 1.66 3 2.32 3 3 C2.01 3 1.02 3 0 3 C0 2.01 0 1.02 0 0 Z " fill="#ffffff" transform="translate(87,119)"/>
<path d="M0 0 C0.99 0.33 1.98 0.66 3 1 C3 1.66 3 2.32 3 3 C2.01 2.67 1.02 2.34 0 2 C0 1.34 0 0.68 0 0 Z " fill="#ffffff" transform="translate(69,110)"/>
<path d="M0 0 C0.66 0.33 1.32 0.66 2 1 C1.67 1.99 1.34 2.98 1 4 C0.34 3.01 -0.32 2.02 -1 1 C-0.67 0.67 -0.34 0.34 0 0 Z " fill="#ffffff" transform="translate(108,107)"/>
<path d="M0 0 C0.99 0.33 1.98 0.66 3 1 C3 1.66 3 2.32 3 3 C2.01 2.67 1.02 2.34 0 2 C0 1.34 0 0.68 0 0 Z " fill="#ffffff" transform="translate(54,106)"/>
<path d="M0 0 C0.66 0 1.32 0 2 0 C1.67 0.99 1.34 1.98 1 3 C0.34 3 -0.32 3 -1 3 C-0.67 2.01 -0.34 1.02 0 0 Z " fill="#ffffff" transform="translate(162,104)"/>
<path d="M0 0 C0.66 0 1.32 0 2 0 C1.67 0.99 1.34 1.98 1 3 C0.34 3 -0.32 3 -1 3 C-0.67 2.01 -0.34 1.02 0 0 Z " fill="#ffffff" transform="translate(109,96)"/>
<path d="M0 0 C0.99 0.33 1.98 0.66 3 1 C3 1.66 3 2.32 3 3 C2.01 2.67 1.02 2.34 0 2 C0 1.34 0 0.68 0 0 Z " fill="#ffffff" transform="translate(160,91)"/>
<path d="M0 0 C0.66 0 1.32 0 2 0 C1.67 0.99 1.34 1.98 1 3 C0.34 3 -0.32 3 -1 3 C-0.67 2.01 -0.34 1.02 0 0 Z " fill="#ffffff" transform="translate(115,91)"/>
<path d="M0 0 C0.99 0.33 1.98 0.66 3 1 C3 1.66 3 2.32 3 3 C2.01 2.67 1.02 2.34 0 2 C0 1.34 0 0.68 0 0 Z " fill="#ffffff" transform="translate(93,90)"/>
<path d="M0 0 C0.99 0.33 1.98 0.66 3 1 C3 1.66 3 2.32 3 3 C2.01 2.67 1.02 2.34 0 2 C0 1.34 0 0.68 0 0 Z " fill="#ffffff" transform="translate(87,85)"/>
<path d="M0 0 C0.33 0.99 0.66 1.98 1 3 C0.01 3 -0.98 3 -2 3 C-2 2.34 -2 1.68 -2 1 C-1.34 0.67 -0.68 0.34 0 0 Z " fill="#ffffff" transform="translate(125,83)"/>
<path d="M0 0 C0.66 0 1.32 0 2 0 C1.67 0.99 1.34 1.98 1 3 C0.34 3 -0.32 3 -1 3 C-0.67 2.01 -0.34 1.02 0 0 Z " fill="#ffffff" transform="translate(81,73)"/>
<path d="M0 0 C0.99 0.33 1.98 0.66 3 1 C3 1.66 3 2.32 3 3 C2.01 2.67 1.02 2.34 0 2 C0 1.34 0 0.68 0 0 Z " fill="#ffffff" transform="translate(125,70)"/>
<path d="M0 0 C0.66 0 1.32 0 2 0 C1.67 0.99 1.34 1.98 1 3 C0.34 3 -0.32 3 -1 3 C-0.67 2.01 -0.34 1.02 0 0 Z " fill="#ffffff" transform="translate(133,59)"/>
<path d="M0 0 C0.99 0.33 1.98 0.66 3 1 C2.34 1.66 1.68 2.32 1 3 C0.34 2.34 -0.32 1.68 -1 1 C-0.67 0.67 -0.34 0.34 0 0 Z " fill="#ffffff" transform="translate(77,59)"/>
<path d="M0 0 C0.66 0.66 1.32 1.32 2 2 C0.68 2 -0.64 2 -2 2 C-1.34 1.34 -0.68 0.68 0 0 Z " fill="#ffffff" transform="translate(137,57)"/>
<path d="M0 0 C0.99 0.33 1.98 0.66 3 1 C3 1.66 3 2.32 3 3 C2.01 2.67 1.02 2.34 0 2 C0 1.34 0 0.68 0 0 Z " fill="#ffffff" transform="translate(73,57)"/>
<path d="M0 0 C0.99 0 1.98 0 3 0 C3 0.66 3 1.32 3 2 C2.01 2 1.02 2 0 2 C0 1.34 0 0.68 0 0 Z " fill="#ffffff" transform="translate(87,173)"/>
<path d="M0 0 C0.99 0 1.98 0 3 0 C3 0.66 3 1.32 3 2 C2.01 2 1.02 2 0 2 C0 1.34 0 0.68 0 0 Z " fill="#ffffff" transform="translate(91,172)"/>
<path d="M0 0 C0.99 0 1.98 0 3 0 C3 0.66 3 1.32 3 2 C2.01 2 1.02 2 0 2 C0 1.34 0 0.68 0 0 Z " fill="#ffffff" transform="translate(113,171)"/>
<path d="M0 0 C0.99 0 1.98 0 3 0 C3 0.66 3 1.32 3 2 C2.01 2 1.02 2 0 2 C0 1.34 0 0.68 0 0 Z " fill="#ffffff" transform="translate(95,171)"/>
<path d="M0 0 C0.99 0 1.98 0 3 0 C3 0.66 3 1.32 3 2 C2.01 2 1.02 2 0 2 C0 1.34 0 0.68 0 0 Z " fill="#ffffff" transform="translate(109,170)"/>
<path d="M0 0 C0.99 0 1.98 0 3 0 C3 0.66 3 1.32 3 2 C2.01 2 1.02 2 0 2 C0 1.34 0 0.68 0 0 Z " fill="#ffffff" transform="translate(99,170)"/>
<path d="M0 0 C0.66 0 1.32 0 2 0 C2 0.99 2 1.98 2 3 C1.34 3 0.68 3 0 3 C0 2.01 0 1.02 0 0 Z " fill="#ffffff" transform="translate(133,168)"/>
<path d="M0 0 C0.99 0.33 1.98 0.66 3 1 C2.34 1.66 1.68 2.32 1 3 C0.67 2.01 0.34 1.02 0 0 Z " fill="#ffffff" transform="translate(99,166)"/>
<path d="M0 0 C0.99 0 1.98 0 3 0 C3 0.66 3 1.32 3 2 C2.01 2 1.02 2 0 2 C0 1.34 0 0.68 0 0 Z " fill="#ffffff" transform="translate(112,165)"/>
<path d="M0 0 C0.66 0 1.32 0 2 0 C2 0.99 2 1.98 2 3 C1.34 3 0.68 3 0 3 C0 2.01 0 1.02 0 0 Z " fill="#ffffff" transform="translate(133,164)"/>
<path d="M0 0 C1.485 0.99 1.485 0.99 3 2 C2.01 2.33 1.02 2.66 0 3 C0 2.01 0 1.02 0 0 Z " fill="#ffffff" transform="translate(92,162)"/>
<path d="M0 0 C0.66 0 1.32 0 2 0 C2 0.99 2 1.98 2 3 C1.34 3 0.68 3 0 3 C0 2.01 0 1.02 0 0 Z " fill="#ffffff" transform="translate(76,163)"/>
<path d="M0 0 C0.99 0 1.98 0 3 0 C3 0.66 3 1.32 3 2 C2.01 2 1.02 2 0 2 C0 1.34 0 0.68 0 0 Z " fill="#ffffff" transform="translate(81,157)"/>
<path d="M0 0 C0 0.99 0 1.98 0 3 C-0.66 3 -1.32 3 -2 3 C-2 2.34 -2 1.68 -2 1 C-1.34 0.67 -0.68 0.34 0 0 Z " fill="#ffffff" transform="translate(138,153)"/>
<path d="M0 0 C0.99 0 1.98 0 3 0 C3 0.66 3 1.32 3 2 C2.01 2 1.02 2 0 2 C0 1.34 0 0.68 0 0 Z " fill="#ffffff" transform="translate(144,152)"/>
<path d="M0 0 C0.99 0 1.98 0 3 0 C3 0.66 3 1.32 3 2 C2.01 2 1.02 2 0 2 C0 1.34 0 0.68 0 0 Z " fill="#ffffff" transform="translate(64,152)"/>
<path d="M0 0 C0.99 0 1.98 0 3 0 C3 0.66 3 1.32 3 2 C2.01 2 1.02 2 0 2 C0 1.34 0 0.68 0 0 Z " fill="#ffffff" transform="translate(148,151)"/>
<path d="M0 0 C0.99 0 1.98 0 3 0 C3 0.66 3 1.32 3 2 C2.01 2 1.02 2 0 2 C0 1.34 0 0.68 0 0 Z " fill="#ffffff" transform="translate(60,151)"/>
<path d="M0 0 C0.99 0 1.98 0 3 0 C3 0.66 3 1.32 3 2 C2.01 2 1.02 2 0 2 C0 1.34 0 0.68 0 0 Z " fill="#ffffff" transform="translate(152,150)"/>
<path d="M0 0 C0.99 0 1.98 0 3 0 C3 0.66 3 1.32 3 2 C2.01 2 1.02 2 0 2 C0 1.34 0 0.68 0 0 Z " fill="#ffffff" transform="translate(56,150)"/>
<path d="M0 0 C0.66 0 1.32 0 2 0 C2 0.99 2 1.98 2 3 C1.34 3 0.68 3 0 3 C0 2.01 0 1.02 0 0 Z " fill="#ffffff" transform="translate(132,149)"/>
<path d="M0 0 C0.66 0 1.32 0 2 0 C2 0.99 2 1.98 2 3 C1.34 3 0.68 3 0 3 C0 2.01 0 1.02 0 0 Z " fill="#ffffff" transform="translate(127,146)"/>
<path d="M0 0 C0.66 0 1.32 0 2 0 C2 0.99 2 1.98 2 3 C1.34 3 0.68 3 0 3 C0 2.01 0 1.02 0 0 Z " fill="#ffffff" transform="translate(132,145)"/>
<path d="M0 0 C0.66 0 1.32 0 2 0 C2 0.99 2 1.98 2 3 C1.34 3 0.68 3 0 3 C0 2.01 0 1.02 0 0 Z " fill="#ffffff" transform="translate(77,145)"/>
<path d="M0 0 C0.66 0.33 1.32 0.66 2 1 C2 1.66 2 2.32 2 3 C1.01 2.67 0.02 2.34 -1 2 C-0.67 1.34 -0.34 0.68 0 0 Z " fill="#ffffff" transform="translate(156,142)"/>
<path d="M0 0 C0.66 0 1.32 0 2 0 C2 0.99 2 1.98 2 3 C1.34 3 0.68 3 0 3 C0 2.01 0 1.02 0 0 Z " fill="#ffffff" transform="translate(123,139)"/>
<path d="M0 0 C0.66 0 1.32 0 2 0 C2 0.99 2 1.98 2 3 C1.34 3 0.68 3 0 3 C0 2.01 0 1.02 0 0 Z " fill="#ffffff" transform="translate(133,137)"/>
<path d="M0 0 C0.66 0 1.32 0 2 0 C2 0.99 2 1.98 2 3 C1.34 3 0.68 3 0 3 C0 2.01 0 1.02 0 0 Z " fill="#ffffff" transform="translate(121,136)"/>
<path d="M0 0 C0.66 0 1.32 0 2 0 C2 0.99 2 1.98 2 3 C1.34 3 0.68 3 0 3 C0 2.01 0 1.02 0 0 Z " fill="#ffffff" transform="translate(133,133)"/>
<path d="M0 0 C0.99 0.495 0.99 0.495 2 1 C1.67 1.99 1.34 2.98 1 4 C0.67 2.68 0.34 1.36 0 0 Z " fill="#ffffff" transform="translate(119,132)"/>
<path d="M0 0 C0.66 0 1.32 0 2 0 C2 0.99 2 1.98 2 3 C1.34 3 0.68 3 0 3 C0 2.01 0 1.02 0 0 Z " fill="#ffffff" transform="translate(78,133)"/>
<path d="M0 0 C0.66 0 1.32 0 2 0 C2 0.99 2 1.98 2 3 C1.34 3 0.68 3 0 3 C0 2.01 0 1.02 0 0 Z " fill="#ffffff" transform="translate(133,129)"/>
<path d="M0 0 C0.66 0 1.32 0 2 0 C2 0.99 2 1.98 2 3 C1.34 3 0.68 3 0 3 C0 2.01 0 1.02 0 0 Z " fill="#ffffff" transform="translate(117,129)"/>
<path d="M0 0 C0.66 0 1.32 0 2 0 C2 0.99 2 1.98 2 3 C1.34 3 0.68 3 0 3 C0 2.01 0 1.02 0 0 Z " fill="#ffffff" transform="translate(78,129)"/>
<path d="M0 0 C0.99 0.33 1.98 0.66 3 1 C2.34 1.66 1.68 2.32 1 3 C0.67 2.01 0.34 1.02 0 0 Z " fill="#ffffff" transform="translate(98,128)"/>
<path d="M0 0 C0.66 0 1.32 0 2 0 C2 0.99 2 1.98 2 3 C1.34 3 0.68 3 0 3 C0 2.01 0 1.02 0 0 Z " fill="#ffffff" transform="translate(144,126)"/>
<path d="M0 0 C0.66 0 1.32 0 2 0 C1.67 0.99 1.34 1.98 1 3 C0.34 2.34 -0.32 1.68 -1 1 C-0.67 0.67 -0.34 0.34 0 0 Z " fill="#ffffff" transform="translate(68,126)"/>
<path d="M0 0 C0.66 0 1.32 0 2 0 C2 0.99 2 1.98 2 3 C1.34 3 0.68 3 0 3 C0 2.01 0 1.02 0 0 Z " fill="#ffffff" transform="translate(133,125)"/>
<path d="M0 0 C0.99 0 1.98 0 3 0 C3 0.66 3 1.32 3 2 C2.01 2 1.02 2 0 2 C0 1.34 0 0.68 0 0 Z " fill="#ffffff" transform="translate(109,125)"/>
<path d="M0 0 C0.99 0 1.98 0 3 0 C3 0.66 3 1.32 3 2 C2.01 2 1.02 2 0 2 C0 1.34 0 0.68 0 0 Z " fill="#ffffff" transform="translate(105,125)"/>
<path d="M0 0 C0.99 0 1.98 0 3 0 C3 0.66 3 1.32 3 2 C2.01 2 1.02 2 0 2 C0 1.34 0 0.68 0 0 Z " fill="#ffffff" transform="translate(101,125)"/>
<path d="M0 0 C0.66 0 1.32 0 2 0 C2 0.99 2 1.98 2 3 C1.34 3 0.68 3 0 3 C0 2.01 0 1.02 0 0 Z " fill="#ffffff" transform="translate(78,125)"/>
<path d="M0 0 C0.99 0 1.98 0 3 0 C3 0.66 3 1.32 3 2 C2.01 2 1.02 2 0 2 C0 1.34 0 0.68 0 0 Z " fill="#ffffff" transform="translate(119,122)"/>
<path d="M0 0 C0.99 0.33 1.98 0.66 3 1 C2.34 1.66 1.68 2.32 1 3 C0.67 2.01 0.34 1.02 0 0 Z " fill="#ffffff" transform="translate(90,122)"/>
<path d="M0 0 C0.66 0 1.32 0 2 0 C2 0.99 2 1.98 2 3 C1.34 3 0.68 3 0 3 C0 2.01 0 1.02 0 0 Z " fill="#ffffff" transform="translate(78,121)"/>
<path d="M0 0 C0.99 0.33 1.98 0.66 3 1 C2.34 1.66 1.68 2.32 1 3 C0.67 2.01 0.34 1.02 0 0 Z " fill="#ffffff" transform="translate(139,120)"/>
<path d="M0 0 C0.66 0 1.32 0 2 0 C1.67 0.99 1.34 1.98 1 3 C0.34 2.34 -0.32 1.68 -1 1 C-0.67 0.67 -0.34 0.34 0 0 Z " fill="#ffffff" transform="translate(73,120)"/>
<path d="M0 0 C0.66 0 1.32 0 2 0 C1.67 0.99 1.34 1.98 1 3 C0.34 2.34 -0.32 1.68 -1 1 C-0.67 0.67 -0.34 0.34 0 0 Z " fill="#ffffff" transform="translate(97,119)"/>
<path d="M0 0 C0.99 0.33 1.98 0.66 3 1 C2.34 1.66 1.68 2.32 1 3 C0.67 2.01 0.34 1.02 0 0 Z " fill="#ffffff" transform="translate(84,117)"/>
<path d="M0 0 C0.99 0.33 1.98 0.66 3 1 C3 1.66 3 2.32 3 3 C2.34 3 1.68 3 1 3 C0.67 2.01 0.34 1.02 0 0 Z " fill="#ffffff" transform="translate(110,115)"/>
<path d="M0 0 C0.66 0 1.32 0 2 0 C2 0.99 2 1.98 2 3 C1.34 3 0.68 3 0 3 C0 2.01 0 1.02 0 0 Z " fill="#ffffff" transform="translate(98,115)"/>
<path d="M0 0 C0.66 0 1.32 0 2 0 C2 0.99 2 1.98 2 3 C1.34 3 0.68 3 0 3 C0 2.01 0 1.02 0 0 Z " fill="#ffffff" transform="translate(109,111)"/>
<path d="M0 0 C0.66 0 1.32 0 2 0 C2 0.66 2 1.32 2 2 C1.01 2.33 0.02 2.66 -1 3 C-0.67 2.01 -0.34 1.02 0 0 Z " fill="#ffffff" transform="translate(143,110)"/>
<path d="M0 0 C0.99 0 1.98 0 3 0 C3 0.66 3 1.32 3 2 C2.01 2 1.02 2 0 2 C0 1.34 0 0.68 0 0 Z " fill="#ffffff" transform="translate(146,109)"/>
<path d="M0 0 C0.99 0 1.98 0 3 0 C3 0.66 3 1.32 3 2 C2.01 2 1.02 2 0 2 C0 1.34 0 0.68 0 0 Z " fill="#ffffff" transform="translate(150,108)"/>
<path d="M0 0 C0.99 0.33 1.98 0.66 3 1 C2.67 1.66 2.34 2.32 2 3 C1.34 2.67 0.68 2.34 0 2 C0 1.34 0 0.68 0 0 Z " fill="#ffffff" transform="translate(123,108)"/>
<path d="M0 0 C0.66 0.33 1.32 0.66 2 1 C2 1.66 2 2.32 2 3 C1.01 2.67 0.02 2.34 -1 2 C-0.67 1.34 -0.34 0.68 0 0 Z " fill="#ffffff" transform="translate(120,106)"/>
<path d="M0 0 C0.99 0 1.98 0 3 0 C3 0.66 3 1.32 3 2 C2.01 2 1.02 2 0 2 C0 1.34 0 0.68 0 0 Z " fill="#ffffff" transform="translate(116,105)"/>
<path d="M0 0 C0.99 0.33 1.98 0.66 3 1 C2.67 1.66 2.34 2.32 2 3 C1.34 2.67 0.68 2.34 0 2 C0 1.34 0 0.68 0 0 Z " fill="#ffffff" transform="translate(112,103)"/>
<path d="M0 0 C0.66 0.99 1.32 1.98 2 3 C1.01 3.495 1.01 3.495 0 4 C-0.33 3.01 -0.66 2.02 -1 1 C-0.67 0.67 -0.34 0.34 0 0 Z " fill="#ffffff" transform="translate(163,94)"/>
<path d="M0 0 C0.66 0.66 1.32 1.32 2 2 C1.01 2.33 0.02 2.66 -1 3 C-0.67 2.01 -0.34 1.02 0 0 Z " fill="#ffffff" transform="translate(112,93)"/>
<path d="M0 0 C0.66 0 1.32 0 2 0 C2 0.99 2 1.98 2 3 C1.34 3 0.68 3 0 3 C0 2.01 0 1.02 0 0 Z " fill="#ffffff" transform="translate(157,84)"/>
<path d="M0 0 C0.66 0 1.32 0 2 0 C1.67 0.99 1.34 1.98 1 3 C0.34 2.34 -0.32 1.68 -1 1 C-0.67 0.67 -0.34 0.34 0 0 Z " fill="#ffffff" transform="translate(127,81)"/>
<path d="M0 0 C0.66 0.33 1.32 0.66 2 1 C2 1.66 2 2.32 2 3 C1.01 2.67 0.02 2.34 -1 2 C-0.67 1.34 -0.34 0.68 0 0 Z " fill="#ffffff" transform="translate(81,80)"/>
<path d="M0 0 C0.99 0 1.98 0 3 0 C3 0.66 3 1.32 3 2 C2.01 2 1.02 2 0 2 C0 1.34 0 0.68 0 0 Z " fill="#ffffff" transform="translate(148,77)"/>
<path d="M0 0 C0.99 0 1.98 0 3 0 C3 0.66 3 1.32 3 2 C2.01 2 1.02 2 0 2 C0 1.34 0 0.68 0 0 Z " fill="#ffffff" transform="translate(144,77)"/>
<path d="M0 0 C0.99 0 1.98 0 3 0 C3 0.66 3 1.32 3 2 C2.01 2 1.02 2 0 2 C0 1.34 0 0.68 0 0 Z " fill="#ffffff" transform="translate(140,77)"/>
<path d="M0 0 C0.99 0 1.98 0 3 0 C3 0.66 3 1.32 3 2 C2.01 2 1.02 2 0 2 C0 1.34 0 0.68 0 0 Z " fill="#ffffff" transform="translate(136,77)"/>
<path d="M0 0 C0.99 0 1.98 0 3 0 C3 0.66 3 1.32 3 2 C2.01 2 1.02 2 0 2 C0 1.34 0 0.68 0 0 Z " fill="#ffffff" transform="translate(68,77)"/>
<path d="M0 0 C0.99 0 1.98 0 3 0 C3 0.66 3 1.32 3 2 C2.01 2 1.02 2 0 2 C0 1.34 0 0.68 0 0 Z " fill="#ffffff" transform="translate(64,77)"/>
<path d="M0 0 C0.99 0 1.98 0 3 0 C3 0.66 3 1.32 3 2 C2.01 2 1.02 2 0 2 C0 1.34 0 0.68 0 0 Z " fill="#ffffff" transform="translate(60,77)"/>
<path d="M0 0 C0.66 0 1.32 0 2 0 C2 0.99 2 1.98 2 3 C1.34 3 0.68 3 0 3 C0 2.01 0 1.02 0 0 Z " fill="#ffffff" transform="translate(155,72)"/>
<path d="M0 0 C0.66 0 1.32 0 2 0 C2 0.99 2 1.98 2 3 C1.34 3 0.68 3 0 3 C0 2.01 0 1.02 0 0 Z " fill="#ffffff" transform="translate(54,72)"/>
<path d="M0 0 C0.66 0.66 1.32 1.32 2 2 C1.01 2.33 0.02 2.66 -1 3 C-0.67 2.01 -0.34 1.02 0 0 Z " fill="#ffffff" transform="translate(84,70)"/>
<path d="M0 0 C0.66 0 1.32 0 2 0 C2 0.99 2 1.98 2 3 C1.34 3 0.68 3 0 3 C0 2.01 0 1.02 0 0 Z " fill="#ffffff" transform="translate(156,68)"/>
<path d="M0 0 C0.99 0 1.98 0 3 0 C3 0.66 3 1.32 3 2 C2.01 2 1.02 2 0 2 C0 1.34 0 0.68 0 0 Z " fill="#ffffff" transform="translate(113,65)"/>
<path d="M0 0 C0.99 0 1.98 0 3 0 C3 0.66 3 1.32 3 2 C2.01 2 1.02 2 0 2 C0 1.34 0 0.68 0 0 Z " fill="#ffffff" transform="translate(109,65)"/>
<path d="M0 0 C0.99 0 1.98 0 3 0 C3 0.66 3 1.32 3 2 C2.01 2 1.02 2 0 2 C0 1.34 0 0.68 0 0 Z " fill="#ffffff" transform="translate(105,65)"/>
<path d="M0 0 C0.99 0 1.98 0 3 0 C3 0.66 3 1.32 3 2 C2.01 2 1.02 2 0 2 C0 1.34 0 0.68 0 0 Z " fill="#ffffff" transform="translate(101,65)"/>
<path d="M0 0 C0.99 0 1.98 0 3 0 C3 0.66 3 1.32 3 2 C2.01 2 1.02 2 0 2 C0 1.34 0 0.68 0 0 Z " fill="#ffffff" transform="translate(97,65)"/>
<path d="M0 0 C0.99 0 1.98 0 3 0 C3 0.66 3 1.32 3 2 C2.01 2 1.02 2 0 2 C0 1.34 0 0.68 0 0 Z " fill="#ffffff" transform="translate(93,65)"/>
<path d="M0 0 C0.99 0 1.98 0 3 0 C3 0.66 3 1.32 3 2 C2.01 2 1.02 2 0 2 C0 1.34 0 0.68 0 0 Z " fill="#ffffff" transform="translate(80,61)"/>
<path d="M0 0 C0.99 0.33 1.98 0.66 3 1 C2.34 1.66 1.68 2.32 1 3 C0.67 2.01 0.34 1.02 0 0 Z " fill="#ffffff" transform="translate(49,57)"/>
<path d="M0 0 C0.99 0 1.98 0 3 0 C3 0.66 3 1.32 3 2 C2.01 2 1.02 2 0 2 C0 1.34 0 0.68 0 0 Z " fill="#ffffff" transform="translate(139,56)"/>
<path d="M0 0 C0.66 0 1.32 0 2 0 C2 0.99 2 1.98 2 3 C1.34 3 0.68 3 0 3 C0 2.01 0 1.02 0 0 Z " fill="#ffffff" transform="translate(123,56)"/>
<path d="M0 0 C0.66 0 1.32 0 2 0 C2 0.99 2 1.98 2 3 C1.34 3 0.68 3 0 3 C0 2.01 0 1.02 0 0 Z " fill="#ffffff" transform="translate(86,56)"/>
<path d="M0 0 C0.66 0.33 1.32 0.66 2 1 C2 1.66 2 2.32 2 3 C1.01 2.67 0.02 2.34 -1 2 C-0.67 1.34 -0.34 0.68 0 0 Z " fill="#ffffff" transform="translate(70,55)"/>
<path d="M0 0 C0.99 0 1.98 0 3 0 C3 0.66 3 1.32 3 2 C2.01 2 1.02 2 0 2 C0 1.34 0 0.68 0 0 Z " fill="#ffffff" transform="translate(66,54)"/>
<path d="M0 0 C0.66 0 1.32 0 2 0 C2 0.99 2 1.98 2 3 C1.34 3 0.68 3 0 3 C0 2.01 0 1.02 0 0 Z " fill="#ffffff" transform="translate(161,53)"/>
<path d="M0 0 C0.66 0 1.32 0 2 0 C2 0.99 2 1.98 2 3 C1.34 3 0.68 3 0 3 C0 2.01 0 1.02 0 0 Z " fill="#ffffff" transform="translate(85,52)"/>
<path d="M0 0 C0.99 0 1.98 0 3 0 C3 0.66 3 1.32 3 2 C2.01 2 1.02 2 0 2 C0 1.34 0 0.68 0 0 Z " fill="#ffffff" transform="translate(62,52)"/>
<path d="M0 0 C0.99 0.33 1.98 0.66 3 1 C2.34 1.66 1.68 2.32 1 3 C0.67 2.01 0.34 1.02 0 0 Z " fill="#ffffff" transform="translate(59,50)"/>
<path d="M0 0 C0.66 0.33 1.32 0.66 2 1 C1.67 1.66 1.34 2.32 1 3 C0.34 3 -0.32 3 -1 3 C-0.67 2.01 -0.34 1.02 0 0 Z " fill="#ffffff" transform="translate(126,48)"/>
<path d="M0 0 C0.99 0 1.98 0 3 0 C3 0.66 3 1.32 3 2 C2.01 2 1.02 2 0 2 C0 1.34 0 0.68 0 0 Z " fill="#ffffff" transform="translate(157,47)"/>
<path d="M0 0 C0.66 0 1.32 0 2 0 C2.33 0.99 2.66 1.98 3 3 C2.01 2.67 1.02 2.34 0 2 C0 1.34 0 0.68 0 0 Z " fill="#ffffff" transform="translate(80,37)"/>
<path d="M0 0 C0.66 0 1.32 0 2 0 C2 0.99 2 1.98 2 3 C1.34 3 0.68 3 0 3 C0 2.01 0 1.02 0 0 Z " fill="#ffffff" transform="translate(79,33)"/>
<path d="M0 0 C0.66 0.66 1.32 1.32 2 2 C1.01 2.33 0.02 2.66 -1 3 C-0.67 2.01 -0.34 1.02 0 0 Z " fill="#ffffff" transform="translate(70,30)"/>
<path d="M0 0 C0.99 0 1.98 0 3 0 C3 0.66 3 1.32 3 2 C2.01 2 1.02 2 0 2 C0 1.34 0 0.68 0 0 Z " fill="#ffffff" transform="translate(123,26)"/>
<path d="M0 0 C0.99 0 1.98 0 3 0 C3 0.66 3 1.32 3 2 C2.01 2 1.02 2 0 2 C0 1.34 0 0.68 0 0 Z " fill="#ffffff" transform="translate(119,26)"/>
<path d="M0 0 C0.99 0 1.98 0 3 0 C3 0.66 3 1.32 3 2 C2.01 2 1.02 2 0 2 C0 1.34 0 0.68 0 0 Z " fill="#ffffff" transform="translate(115,26)"/>
<path d="M0 0 C0.99 0 1.98 0 3 0 C3 0.66 3 1.32 3 2 C2.01 2 1.02 2 0 2 C0 1.34 0 0.68 0 0 Z " fill="#ffffff" transform="translate(111,26)"/>
<path d="M0 0 C0.99 0 1.98 0 3 0 C3 0.66 3 1.32 3 2 C2.01 2 1.02 2 0 2 C0 1.34 0 0.68 0 0 Z " fill="#ffffff" transform="translate(107,26)"/>
<path d="M0 0 C0.99 0 1.98 0 3 0 C3 0.66 3 1.32 3 2 C2.01 2 1.02 2 0 2 C0 1.34 0 0.68 0 0 Z " fill="#ffffff" transform="translate(103,26)"/>
<path d="M0 0 C0.99 0 1.98 0 3 0 C3 0.66 3 1.32 3 2 C2.01 2 1.02 2 0 2 C0 1.34 0 0.68 0 0 Z " fill="#ffffff" transform="translate(99,26)"/>
<path d="M0 0 C0.99 0 1.98 0 3 0 C3 0.66 3 1.32 3 2 C2.01 2 1.02 2 0 2 C0 1.34 0 0.68 0 0 Z " fill="#ffffff" transform="translate(95,26)"/>
<path d="M0 0 C0.99 0 1.98 0 3 0 C3 0.66 3 1.32 3 2 C2.01 2 1.02 2 0 2 C0 1.34 0 0.68 0 0 Z " fill="#ffffff" transform="translate(91,26)"/>
<path d="M0 0 C0.99 0 1.98 0 3 0 C3 0.66 3 1.32 3 2 C2.01 2 1.02 2 0 2 C0 1.34 0 0.68 0 0 Z " fill="#ffffff" transform="translate(87,26)"/>
<path d="M0 0 C0.99 0 1.98 0 3 0 C3 0.66 3 1.32 3 2 C2.01 2 1.02 2 0 2 C0 1.34 0 0.68 0 0 Z " fill="#ffffff" transform="translate(83,26)"/>
<path d="M0 0 C0.66 0 1.32 0 2 0 C1.67 0.99 1.34 1.98 1 3 C0.67 2.01 0.34 1.02 0 0 Z " fill="#ffffff" transform="translate(76,167)"/>
<path d="M0 0 C0.66 0 1.32 0 2 0 C2 0.66 2 1.32 2 2 C1.01 1.67 0.02 1.34 -1 1 C-0.67 0.67 -0.34 0.34 0 0 Z " fill="#ffffff" transform="translate(116,163)"/>
<path d="M0 0 C0.99 0.33 1.98 0.66 3 1 C2.01 1.33 1.02 1.66 0 2 C0 1.34 0 0.68 0 0 Z " fill="#ffffff" transform="translate(140,153)"/>
<path d="M0 0 C0.99 0 1.98 0 3 0 C3 0.66 3 1.32 3 2 C2.01 1.67 1.02 1.34 0 1 C0 0.67 0 0.34 0 0 Z " fill="#ffffff" transform="translate(68,153)"/>
<path d="M0 0 C0.66 0 1.32 0 2 0 C1.67 0.99 1.34 1.98 1 3 C0.67 2.01 0.34 1.02 0 0 Z " fill="#ffffff" transform="translate(129,150)"/>
<path d="M0 0 C0.66 0 1.32 0 2 0 C1.67 0.99 1.34 1.98 1 3 C0.67 2.01 0.34 1.02 0 0 Z " fill="#ffffff" transform="translate(125,143)"/>
<path d="M0 0 C0.33 0.99 0.66 1.98 1 3 C0.34 3 -0.32 3 -1 3 C-0.67 2.01 -0.34 1.02 0 0 Z " fill="#ffffff" transform="translate(59,138)"/>
<path d="M0 0 C0.66 0 1.32 0 2 0 C1.67 0.99 1.34 1.98 1 3 C0.67 2.01 0.34 1.02 0 0 Z " fill="#ffffff" transform="translate(78,137)"/>
<path d="M0 0 C0.66 0 1.32 0 2 0 C1.67 0.99 1.34 1.98 1 3 C0.67 2.01 0.34 1.02 0 0 Z " fill="#ffffff" transform="translate(151,136)"/>
<path d="M0 0 C0.66 0 1.32 0 2 0 C1.67 0.99 1.34 1.98 1 3 C0.67 2.01 0.34 1.02 0 0 Z " fill="#ffffff" transform="translate(112,119)"/>
<path d="M0 0 C0.99 0 1.98 0 3 0 C3 0.66 3 1.32 3 2 C2.01 1.67 1.02 1.34 0 1 C0 0.67 0 0.34 0 0 Z " fill="#ffffff" transform="translate(73,112)"/>
<path d="M0 0 C0.99 0.33 1.98 0.66 3 1 C2.01 1.33 1.02 1.66 0 2 C0 1.34 0 0.68 0 0 Z " fill="#ffffff" transform="translate(50,105)"/>
<path d="M0 0 C0.66 0 1.32 0 2 0 C1.67 0.99 1.34 1.98 1 3 C0.67 2.01 0.34 1.02 0 0 Z " fill="#ffffff" transform="translate(106,104)"/>
<path d="M0 0 C0.99 0.495 0.99 0.495 2 1 C2 1.66 2 2.32 2 3 C1.34 3 0.68 3 0 3 C0 2.01 0 1.02 0 0 Z " fill="#ffffff" transform="translate(159,87)"/>
<path d="M0 0 C0.99 0.33 1.98 0.66 3 1 C2.01 1.33 1.02 1.66 0 2 C0 1.34 0 0.68 0 0 Z " fill="#ffffff" transform="translate(90,88)"/>
<path d="M0 0 C0.99 0.33 1.98 0.66 3 1 C2.01 1.33 1.02 1.66 0 2 C0 1.34 0 0.68 0 0 Z " fill="#ffffff" transform="translate(84,83)"/>
<path d="M0 0 C0.99 0.495 0.99 0.495 2 1 C2 1.66 2 2.32 2 3 C1.34 3 0.68 3 0 3 C0 2.01 0 1.02 0 0 Z " fill="#ffffff" transform="translate(53,68)"/>
<path d="M0 0 C0.33 0.99 0.66 1.98 1 3 C0.34 3 -0.32 3 -1 3 C-0.67 2.01 -0.34 1.02 0 0 Z " fill="#ffffff" transform="translate(158,64)"/>
<path d="M0 0 C0.99 0.33 1.98 0.66 3 1 C2.01 1.33 1.02 1.66 0 2 C0 1.34 0 0.68 0 0 Z " fill="#ffffff" transform="translate(125,63)"/>
<path d="M0 0 C0.66 0 1.32 0 2 0 C2 0.66 2 1.32 2 2 C1.01 1.67 0.02 1.34 -1 1 C-0.67 0.67 -0.34 0.34 0 0 Z " fill="#ffffff" transform="translate(129,61)"/>
<path d="M0 0 C0.33 0.99 0.66 1.98 1 3 C0.34 3 -0.32 3 -1 3 C-0.67 2.01 -0.34 1.02 0 0 Z " fill="#ffffff" transform="translate(125,52)"/>
<path d="M0 0 C0.66 0 1.32 0 2 0 C1.67 0.99 1.34 1.98 1 3 C0.67 2.01 0.34 1.02 0 0 Z " fill="#ffffff" transform="translate(48,53)"/>
<path d="M0 0 C0.99 0.495 0.99 0.495 2 1 C2 1.66 2 2.32 2 3 C1.34 3 0.68 3 0 3 C0 2.01 0 1.02 0 0 Z " fill="#ffffff" transform="translate(84,48)"/>
<path d="M0 0 C0.66 0 1.32 0 2 0 C1.67 0.99 1.34 1.98 1 3 C0.67 2.01 0.34 1.02 0 0 Z " fill="#ffffff" transform="translate(130,33)"/>
<path d="M0 0 C0.66 0 1.32 0 2 0 C1.67 0.99 1.34 1.98 1 3 C0.67 2.01 0.34 1.02 0 0 Z " fill="#ffffff" transform="translate(132,160)"/>
<path d="M0 0 C0.99 0.495 0.99 0.495 2 1 C1.34 1.66 0.68 2.32 0 3 C0 2.01 0 1.02 0 0 Z " fill="#ffffff" transform="translate(77,159)"/>
<path d="" fill="#ffffff" transform="translate(0,0)"/>
<path d="" fill="#ffffff" transform="translate(0,0)"/>
<path d="" fill="#ffffff" transform="translate(0,0)"/>
</svg>